  0
SECTION
  2
HEADER
  9
$ANGBASE
  50
0.0
  9
$ANGDIR
  70
  1
  9
$MEASUREMENT
  70
0
  0
ENDSEC
  0
SECTION
  2
TABLES
  0
TABLE
  2
LTYPE
  70
1
  0
LTYPE
  2
CONTINUOUS
  70
0
  3
Solid line
  72
65
  73
0
  40
0.0
  0
ENDTAB
  0
TABLE
  2
STYLE
  70
4
  0
STYLE
  2
KICAD
  70
0
  40
0
  41
1
  42
1
  50
0
  71
0
  3
isocp.shx
  0
STYLE
  2
KICADB
  70
0
  40
0
  41
1
  42
1
  50
0
  71
0
  3
isocp.shx
  0
STYLE
  2
KICADI
  70
0
  40
0
  41
1
  42
1
  50
15
  71
0
  3
isocp.shx
  0
STYLE
  2
KICADBI
  70
0
  40
0
  41
1
  42
1
  50
15
  71
0
  3
isocp.shx
  0
ENDTAB
  0
TABLE
  2
LAYER
  70
30
  0
LAYER
  2
BLACK
  70
0
  62
7
  6
CONTINUOUS
  0
LAYER
  2
GRAY1
  70
0
  62
251
  6
CONTINUOUS
  0
LAYER
  2
GRAY2
  70
0
  62
8
  6
CONTINUOUS
  0
LAYER
  2
GRAY3
  70
0
  62
9
  6
CONTINUOUS
  0
LAYER
  2
WHITE
  70
0
  62
7
  6
CONTINUOUS
  0
LAYER
  2
LYELLOW
  70
0
  62
51
  6
CONTINUOUS
  0
LAYER
  2
BLUE1
  70
0
  62
178
  6
CONTINUOUS
  0
LAYER
  2
GREEN1
  70
0
  62
98
  6
CONTINUOUS
  0
LAYER
  2
CYAN1
  70
0
  62
138
  6
CONTINUOUS
  0
LAYER
  2
RED1
  70
0
  62
18
  6
CONTINUOUS
  0
LAYER
  2
MAGENTA1
  70
0
  62
228
  6
CONTINUOUS
  0
LAYER
  2
BROWN1
  70
0
  62
58
  6
CONTINUOUS
  0
LAYER
  2
BLUE2
  70
0
  62
5
  6
CONTINUOUS
  0
LAYER
  2
GREEN2
  70
0
  62
3
  6
CONTINUOUS
  0
LAYER
  2
CYAN2
  70
0
  62
4
  6
CONTINUOUS
  0
LAYER
  2
RED2
  70
0
  62
1
  6
CONTINUOUS
  0
LAYER
  2
MAGENTA2
  70
0
  62
6
  6
CONTINUOUS
  0
LAYER
  2
BROWN2
  70
0
  62
54
  6
CONTINUOUS
  0
LAYER
  2
BLUE3
  70
0
  62
171
  6
CONTINUOUS
  0
LAYER
  2
GREEN3
  70
0
  62
91
  6
CONTINUOUS
  0
LAYER
  2
CYAN3
  70
0
  62
131
  6
CONTINUOUS
  0
LAYER
  2
RED3
  70
0
  62
11
  6
CONTINUOUS
  0
LAYER
  2
MAGENTA3
  70
0
  62
221
  6
CONTINUOUS
  0
LAYER
  2
YELLOW3
  70
0
  62
2
  6
CONTINUOUS
  0
LAYER
  2
BLUE4
  70
0
  62
5
  6
CONTINUOUS
  0
LAYER
  2
GREEN4
  70
0
  62
3
  6
CONTINUOUS
  0
LAYER
  2
CYAN4
  70
0
  62
4
  6
CONTINUOUS
  0
LAYER
  2
RED4
  70
0
  62
1
  6
CONTINUOUS
  0
LAYER
  2
MAGENTA4
  70
0
  62
6
  6
CONTINUOUS
  0
LAYER
  2
YELLOW4
  70
0
  62
2
  6
CONTINUOUS
  0
ENDTAB
  0
ENDSEC
  0
SECTION
  2
ENTITIES
0
LINE
8
Black
10
54.0748
20
-38.9835
11
53.8748
21
-38.9835
0
LINE
8
Black
10
53.8748
20
-38.9835
11
53.8748
21
-38.1835
0
LINE
8
Black
10
53.8748
20
-38.1835
11
54.0748
21
-38.1835
0
LINE
8
Black
10
54.0748
20
-38.1835
11
54.0748
21
-38.9835
0
LINE
8
Black
10
51.6748
20
-38.9835
11
51.4748
21
-38.9835
0
LINE
8
Black
10
51.4748
20
-38.9835
11
51.4748
21
-38.1835
0
LINE
8
Black
10
51.4748
20
-38.1835
11
51.6748
21
-38.1835
0
LINE
8
Black
10
51.6748
20
-38.1835
11
51.6748
21
-38.9835
0
LINE
8
Black
10
52.0748
20
-38.9835
11
51.8748
21
-38.9835
0
LINE
8
Black
10
51.8748
20
-38.9835
11
51.8748
21
-38.1835
0
LINE
8
Black
10
51.8748
20
-38.1835
11
52.0748
21
-38.1835
0
LINE
8
Black
10
52.0748
20
-38.1835
11
52.0748
21
-38.9835
0
LINE
8
Black
10
52.4748
20
-38.9835
11
52.2748
21
-38.9835
0
LINE
8
Black
10
52.2748
20
-38.9835
11
52.2748
21
-38.1835
0
LINE
8
Black
10
52.2748
20
-38.1835
11
52.4748
21
-38.1835
0
LINE
8
Black
10
52.4748
20
-38.1835
11
52.4748
21
-38.9835
0
LINE
8
Black
10
52.8748
20
-38.9835
11
52.6748
21
-38.9835
0
LINE
8
Black
10
52.6748
20
-38.9835
11
52.6748
21
-38.1835
0
LINE
8
Black
10
52.6748
20
-38.1835
11
52.8748
21
-38.1835
0
LINE
8
Black
10
52.8748
20
-38.1835
11
52.8748
21
-38.9835
0
LINE
8
Black
10
53.2748
20
-38.9835
11
53.0748
21
-38.9835
0
LINE
8
Black
10
53.0748
20
-38.9835
11
53.0748
21
-38.1835
0
LINE
8
Black
10
53.0748
20
-38.1835
11
53.2748
21
-38.1835
0
LINE
8
Black
10
53.2748
20
-38.1835
11
53.2748
21
-38.9835
0
LINE
8
Black
10
51.2748
20
-38.9835
11
51.0748
21
-38.9835
0
LINE
8
Black
10
51.0748
20
-38.9835
11
51.0748
21
-38.1835
0
LINE
8
Black
10
51.0748
20
-38.1835
11
51.2748
21
-38.1835
0
LINE
8
Black
10
51.2748
20
-38.1835
11
51.2748
21
-38.9835
0
LINE
8
Black
10
53.6748
20
-38.9835
11
53.4748
21
-38.9835
0
LINE
8
Black
10
53.4748
20
-38.9835
11
53.4748
21
-38.1835
0
LINE
8
Black
10
53.4748
20
-38.1835
11
53.6748
21
-38.1835
0
LINE
8
Black
10
53.6748
20
-38.1835
11
53.6748
21
-38.9835
0
LINE
8
Black
10
54.4748
20
-38.9835
11
54.2748
21
-38.9835
0
LINE
8
Black
10
54.2748
20
-38.9835
11
54.2748
21
-38.1835
0
LINE
8
Black
10
54.2748
20
-38.1835
11
54.4748
21
-38.1835
0
LINE
8
Black
10
54.4748
20
-38.1835
11
54.4748
21
-38.9835
0
LINE
8
Black
10
54.8748
20
-38.9835
11
54.6748
21
-38.9835
0
LINE
8
Black
10
54.6748
20
-38.9835
11
54.6748
21
-38.1835
0
LINE
8
Black
10
54.6748
20
-38.1835
11
54.8748
21
-38.1835
0
LINE
8
Black
10
54.8748
20
-38.1835
11
54.8748
21
-38.9835
0
LINE
8
Black
10
55.2748
20
-38.9835
11
55.0748
21
-38.9835
0
LINE
8
Black
10
55.0748
20
-38.9835
11
55.0748
21
-38.1835
0
LINE
8
Black
10
55.0748
20
-38.1835
11
55.2748
21
-38.1835
0
LINE
8
Black
10
55.2748
20
-38.1835
11
55.2748
21
-38.9835
0
LINE
8
Black
10
55.6748
20
-38.9835
11
55.4748
21
-38.9835
0
LINE
8
Black
10
55.4748
20
-38.9835
11
55.4748
21
-38.1835
0
LINE
8
Black
10
55.4748
20
-38.1835
11
55.6748
21
-38.1835
0
LINE
8
Black
10
55.6748
20
-38.1835
11
55.6748
21
-38.9835
0
LINE
8
Black
10
50.7748
20
-37.8835
11
49.9748
21
-37.8835
0
LINE
8
Black
10
49.9748
20
-37.8835
11
49.9748
21
-37.6835
0
LINE
8
Black
10
49.9748
20
-37.6835
11
50.7748
21
-37.6835
0
LINE
8
Black
10
50.7748
20
-37.6835
11
50.7748
21
-37.8835
0
LINE
8
Black
10
56.7748
20
-37.8835
11
55.9748
21
-37.8835
0
LINE
8
Black
10
55.9748
20
-37.8835
11
55.9748
21
-37.6835
0
LINE
8
Black
10
55.9748
20
-37.6835
11
56.7748
21
-37.6835
0
LINE
8
Black
10
56.7748
20
-37.6835
11
56.7748
21
-37.8835
0
LINE
8
Black
10
55.5998
20
-33.3585
11
55.5998
21
-37.8085
0
LINE
8
Black
10
55.5998
20
-37.8085
11
51.1498
21
-37.8085
0
LINE
8
Black
10
51.1498
20
-37.8085
11
51.1498
21
-33.3585
0
LINE
8
Black
10
51.1498
20
-33.3585
11
55.5998
21
-33.3585
0
LINE
8
Black
10
50.7748
20
-37.4835
11
49.9748
21
-37.4835
0
LINE
8
Black
10
49.9748
20
-37.4835
11
49.9748
21
-37.2835
0
LINE
8
Black
10
49.9748
20
-37.2835
11
50.7748
21
-37.2835
0
LINE
8
Black
10
50.7748
20
-37.2835
11
50.7748
21
-37.4835
0
LINE
8
Black
10
56.7748
20
-37.4835
11
55.9748
21
-37.4835
0
LINE
8
Black
10
55.9748
20
-37.4835
11
55.9748
21
-37.2835
0
LINE
8
Black
10
55.9748
20
-37.2835
11
56.7748
21
-37.2835
0
LINE
8
Black
10
56.7748
20
-37.2835
11
56.7748
21
-37.4835
0
LINE
8
Black
10
50.7748
20
-37.0835
11
49.9748
21
-37.0835
0
LINE
8
Black
10
49.9748
20
-37.0835
11
49.9748
21
-36.8835
0
LINE
8
Black
10
49.9748
20
-36.8835
11
50.7748
21
-36.8835
0
LINE
8
Black
10
50.7748
20
-36.8835
11
50.7748
21
-37.0835
0
LINE
8
Black
10
56.7748
20
-37.0835
11
55.9748
21
-37.0835
0
LINE
8
Black
10
55.9748
20
-37.0835
11
55.9748
21
-36.8835
0
LINE
8
Black
10
55.9748
20
-36.8835
11
56.7748
21
-36.8835
0
LINE
8
Black
10
56.7748
20
-36.8835
11
56.7748
21
-37.0835
0
LINE
8
Black
10
56.7748
20
-36.6835
11
55.9748
21
-36.6835
0
LINE
8
Black
10
55.9748
20
-36.6835
11
55.9748
21
-36.4835
0
LINE
8
Black
10
55.9748
20
-36.4835
11
56.7748
21
-36.4835
0
LINE
8
Black
10
56.7748
20
-36.4835
11
56.7748
21
-36.6835
0
LINE
8
Black
10
50.7748
20
-36.6835
11
49.9748
21
-36.6835
0
LINE
8
Black
10
49.9748
20
-36.6835
11
49.9748
21
-36.4835
0
LINE
8
Black
10
49.9748
20
-36.4835
11
50.7748
21
-36.4835
0
LINE
8
Black
10
50.7748
20
-36.4835
11
50.7748
21
-36.6835
0
LINE
8
Black
10
56.7748
20
-36.2835
11
55.9748
21
-36.2835
0
LINE
8
Black
10
55.9748
20
-36.2835
11
55.9748
21
-36.0835
0
LINE
8
Black
10
55.9748
20
-36.0835
11
56.7748
21
-36.0835
0
LINE
8
Black
10
56.7748
20
-36.0835
11
56.7748
21
-36.2835
0
LINE
8
Black
10
50.7748
20
-36.2835
11
49.9748
21
-36.2835
0
LINE
8
Black
10
49.9748
20
-36.2835
11
49.9748
21
-36.0835
0
LINE
8
Black
10
49.9748
20
-36.0835
11
50.7748
21
-36.0835
0
LINE
8
Black
10
50.7748
20
-36.0835
11
50.7748
21
-36.2835
0
LINE
8
Black
10
50.7748
20
-35.8835
11
49.9748
21
-35.8835
0
LINE
8
Black
10
49.9748
20
-35.8835
11
49.9748
21
-35.6835
0
LINE
8
Black
10
49.9748
20
-35.6835
11
50.7748
21
-35.6835
0
LINE
8
Black
10
50.7748
20
-35.6835
11
50.7748
21
-35.8835
0
LINE
8
Black
10
56.7748
20
-35.8835
11
55.9748
21
-35.8835
0
LINE
8
Black
10
55.9748
20
-35.8835
11
55.9748
21
-35.6835
0
LINE
8
Black
10
55.9748
20
-35.6835
11
56.7748
21
-35.6835
0
LINE
8
Black
10
56.7748
20
-35.6835
11
56.7748
21
-35.8835
0
LINE
8
Black
10
50.7748
20
-35.4835
11
49.9748
21
-35.4835
0
LINE
8
Black
10
49.9748
20
-35.4835
11
49.9748
21
-35.2835
0
LINE
8
Black
10
49.9748
20
-35.2835
11
50.7748
21
-35.2835
0
LINE
8
Black
10
50.7748
20
-35.2835
11
50.7748
21
-35.4835
0
LINE
8
Black
10
56.7748
20
-35.4835
11
55.9748
21
-35.4835
0
LINE
8
Black
10
55.9748
20
-35.4835
11
55.9748
21
-35.2835
0
LINE
8
Black
10
55.9748
20
-35.2835
11
56.7748
21
-35.2835
0
LINE
8
Black
10
56.7748
20
-35.2835
11
56.7748
21
-35.4835
0
LINE
8
Black
10
50.7748
20
-35.0835
11
49.9748
21
-35.0835
0
LINE
8
Black
10
49.9748
20
-35.0835
11
49.9748
21
-34.8835
0
LINE
8
Black
10
49.9748
20
-34.8835
11
50.7748
21
-34.8835
0
LINE
8
Black
10
50.7748
20
-34.8835
11
50.7748
21
-35.0835
0
LINE
8
Black
10
56.7748
20
-35.0835
11
55.9748
21
-35.0835
0
LINE
8
Black
10
55.9748
20
-35.0835
11
55.9748
21
-34.8835
0
LINE
8
Black
10
55.9748
20
-34.8835
11
56.7748
21
-34.8835
0
LINE
8
Black
10
56.7748
20
-34.8835
11
56.7748
21
-35.0835
0
LINE
8
Black
10
50.7748
20
-34.6835
11
49.9748
21
-34.6835
0
LINE
8
Black
10
49.9748
20
-34.6835
11
49.9748
21
-34.4835
0
LINE
8
Black
10
49.9748
20
-34.4835
11
50.7748
21
-34.4835
0
LINE
8
Black
10
50.7748
20
-34.4835
11
50.7748
21
-34.6835
0
LINE
8
Black
10
56.7748
20
-34.6835
11
55.9748
21
-34.6835
0
LINE
8
Black
10
55.9748
20
-34.6835
11
55.9748
21
-34.4835
0
LINE
8
Black
10
55.9748
20
-34.4835
11
56.7748
21
-34.4835
0
LINE
8
Black
10
56.7748
20
-34.4835
11
56.7748
21
-34.6835
0
LINE
8
Black
10
56.7748
20
-34.2835
11
55.9748
21
-34.2835
0
LINE
8
Black
10
55.9748
20
-34.2835
11
55.9748
21
-34.0835
0
LINE
8
Black
10
55.9748
20
-34.0835
11
56.7748
21
-34.0835
0
LINE
8
Black
10
56.7748
20
-34.0835
11
56.7748
21
-34.2835
0
LINE
8
Black
10
50.7748
20
-34.2835
11
49.9748
21
-34.2835
0
LINE
8
Black
10
49.9748
20
-34.2835
11
49.9748
21
-34.0835
0
LINE
8
Black
10
49.9748
20
-34.0835
11
50.7748
21
-34.0835
0
LINE
8
Black
10
50.7748
20
-34.0835
11
50.7748
21
-34.2835
0
LINE
8
Black
10
56.7748
20
-33.8835
11
55.9748
21
-33.8835
0
LINE
8
Black
10
55.9748
20
-33.8835
11
55.9748
21
-33.6835
0
LINE
8
Black
10
55.9748
20
-33.6835
11
56.7748
21
-33.6835
0
LINE
8
Black
10
56.7748
20
-33.6835
11
56.7748
21
-33.8835
0
LINE
8
Black
10
50.7748
20
-33.8835
11
49.9748
21
-33.8835
0
LINE
8
Black
10
49.9748
20
-33.8835
11
49.9748
21
-33.6835
0
LINE
8
Black
10
49.9748
20
-33.6835
11
50.7748
21
-33.6835
0
LINE
8
Black
10
50.7748
20
-33.6835
11
50.7748
21
-33.8835
0
LINE
8
Black
10
56.7748
20
-33.4835
11
55.9748
21
-33.4835
0
LINE
8
Black
10
55.9748
20
-33.4835
11
55.9748
21
-33.2835
0
LINE
8
Black
10
55.9748
20
-33.2835
11
56.7748
21
-33.2835
0
LINE
8
Black
10
56.7748
20
-33.2835
11
56.7748
21
-33.4835
0
LINE
8
Black
10
50.7748
20
-33.4835
11
49.9748
21
-33.4835
0
LINE
8
Black
10
49.9748
20
-33.4835
11
49.9748
21
-33.2835
0
LINE
8
Black
10
49.9748
20
-33.2835
11
50.7748
21
-33.2835
0
LINE
8
Black
10
50.7748
20
-33.2835
11
50.7748
21
-33.4835
0
LINE
8
Black
10
51.6688
20
-33.0927
11
51.6514
21
-33.1228
0
LINE
8
Black
10
51.6514
20
-33.1228
11
51.6248
21
-33.1451
0
LINE
8
Black
10
51.6248
20
-33.1451
11
51.5922
21
-33.157
0
LINE
8
Black
10
51.5922
20
-33.157
11
51.5574
21
-33.157
0
LINE
8
Black
10
51.5574
20
-33.157
11
51.5248
21
-33.1451
0
LINE
8
Black
10
51.5248
20
-33.1451
11
51.4982
21
-33.1228
0
LINE
8
Black
10
51.4982
20
-33.1228
11
51.4808
21
-33.0927
0
LINE
8
Black
10
51.4808
20
-33.0927
11
51.4748
21
-33.0585
0
LINE
8
Black
10
51.4748
20
-33.0585
11
51.4748
21
-29.88
0
LINE
8
Black
10
51.4748
20
-29.88
11
51.4573
21
-29.8498
0
LINE
8
Black
10
51.4573
20
-29.8498
11
51.4498
21
-29.807
0
LINE
8
Black
10
51.4498
20
-29.807
11
51.4498
21
-24.0625
0
LINE
8
Black
10
51.4498
20
-24.0625
11
49.0821
21
-21.6948
0
LINE
8
Black
10
49.0821
20
-21.6948
11
38.3468
21
-21.6948
0
LINE
8
Black
10
38.3468
20
-21.6948
11
37.7764
21
-22.2652
0
LINE
8
Black
10
37.7764
20
-22.2652
11
37.7764
21
-23.0448
0
LINE
8
Black
10
37.7764
20
-23.0448
11
37.3764
21
-23.0448
0
LINE
8
Black
10
37.3764
20
-23.0448
11
37.3764
21
-21.6948
0
LINE
8
Black
10
37.3764
20
-21.6948
11
37.7764
21
-21.6948
0
LINE
8
Black
10
37.7764
20
-21.6948
11
37.7764
21
-21.9116
0
LINE
8
Black
10
37.7764
20
-21.9116
11
38.2066
21
-21.4814
0
LINE
8
Black
10
38.2066
20
-21.4814
11
38.2111
21
-21.4782
0
LINE
8
Black
10
38.2111
20
-21.4782
11
38.2147
21
-21.474
0
LINE
8
Black
10
38.2147
20
-21.474
11
38.2288
21
-21.4659
0
LINE
8
Black
10
38.2288
20
-21.4659
11
38.2422
21
-21.4565
0
LINE
8
Black
10
38.2422
20
-21.4565
11
38.2475
21
-21.4551
0
LINE
8
Black
10
38.2475
20
-21.4551
11
38.2523
21
-21.4523
0
LINE
8
Black
10
38.2523
20
-21.4523
11
38.2684
21
-21.4495
0
LINE
8
Black
10
38.2684
20
-21.4495
11
38.2841
21
-21.4453
0
LINE
8
Black
10
38.2841
20
-21.4453
11
38.2896
21
-21.4457
0
LINE
8
Black
10
38.2896
20
-21.4457
11
38.295
21
-21.4448
0
LINE
8
Black
10
38.295
20
-21.4448
11
49.1339
21
-21.4448
0
LINE
8
Black
10
49.1339
20
-21.4448
11
49.1393
21
-21.4457
0
LINE
8
Black
10
49.1393
20
-21.4457
11
49.1448
21
-21.4453
0
LINE
8
Black
10
49.1448
20
-21.4453
11
49.1605
21
-21.4495
0
LINE
8
Black
10
49.1605
20
-21.4495
11
49.1766
21
-21.4523
0
LINE
8
Black
10
49.1766
20
-21.4523
11
49.1814
21
-21.4551
0
LINE
8
Black
10
49.1814
20
-21.4551
11
49.1867
21
-21.4565
0
LINE
8
Black
10
49.1867
20
-21.4565
11
49.2001
21
-21.4659
0
LINE
8
Black
10
49.2001
20
-21.4659
11
49.2142
21
-21.474
0
LINE
8
Black
10
49.2142
20
-21.474
11
49.2178
21
-21.4782
0
LINE
8
Black
10
49.2178
20
-21.4782
11
49.2223
21
-21.4814
0
LINE
8
Black
10
49.2223
20
-21.4814
11
51.6632
21
-23.9223
0
LINE
8
Black
10
51.6632
20
-23.9223
11
51.6664
21
-23.9268
0
LINE
8
Black
10
51.6664
20
-23.9268
11
51.6706
21
-23.9304
0
LINE
8
Black
10
51.6706
20
-23.9304
11
51.6787
21
-23.9445
0
LINE
8
Black
10
51.6787
20
-23.9445
11
51.6881
21
-23.9579
0
LINE
8
Black
10
51.6881
20
-23.9579
11
51.6895
21
-23.9632
0
LINE
8
Black
10
51.6895
20
-23.9632
11
51.6923
21
-23.968
0
LINE
8
Black
10
51.6923
20
-23.968
11
51.6951
21
-23.9841
0
LINE
8
Black
10
51.6951
20
-23.9841
11
51.6993
21
-23.9998
0
LINE
8
Black
10
51.6993
20
-23.9998
11
51.6989
21
-24.0053
0
LINE
8
Black
10
51.6989
20
-24.0053
11
51.6998
21
-24.0107
0
LINE
8
Black
10
51.6998
20
-24.0107
11
51.6998
21
-29.807
0
LINE
8
Black
10
51.6998
20
-29.807
11
51.6923
21
-29.8498
0
LINE
8
Black
10
51.6923
20
-29.8498
11
51.6748
21
-29.88
0
LINE
8
Black
10
51.6748
20
-29.88
11
51.6748
21
-33.0585
0
LINE
8
Black
10
51.6748
20
-33.0585
11
51.6688
21
-33.0927
0
LINE
8
Black
10
54.4748
20
-32.9835
11
54.2748
21
-32.9835
0
LINE
8
Black
10
54.2748
20
-32.9835
11
54.2748
21
-32.1835
0
LINE
8
Black
10
54.2748
20
-32.1835
11
54.4748
21
-32.1835
0
LINE
8
Black
10
54.4748
20
-32.1835
11
54.4748
21
-32.9835
0
LINE
8
Black
10
55.2748
20
-32.9835
11
55.0748
21
-32.9835
0
LINE
8
Black
10
55.0748
20
-32.9835
11
55.0748
21
-32.1835
0
LINE
8
Black
10
55.0748
20
-32.1835
11
55.2748
21
-32.1835
0
LINE
8
Black
10
55.2748
20
-32.1835
11
55.2748
21
-32.9835
0
LINE
8
Black
10
37.1264
20
-23.0448
11
37.0514
21
-23.0448
0
LINE
8
Black
10
37.0514
20
-23.0448
11
37.0514
21
-23.128
0
LINE
8
Black
10
37.0514
20
-23.128
11
37.7682
21
-23.8448
0
LINE
8
Black
10
37.7682
20
-23.8448
11
42.5611
21
-23.8448
0
LINE
8
Black
10
42.5611
20
-23.8448
11
42.5665
21
-23.8457
0
LINE
8
Black
10
42.5665
20
-23.8457
11
42.572
21
-23.8453
0
LINE
8
Black
10
42.572
20
-23.8453
11
42.5878
21
-23.8495
0
LINE
8
Black
10
42.5878
20
-23.8495
11
42.6039
21
-23.8523
0
LINE
8
Black
10
42.6039
20
-23.8523
11
42.6086
21
-23.8551
0
LINE
8
Black
10
42.6086
20
-23.8551
11
42.6139
21
-23.8565
0
LINE
8
Black
10
42.6139
20
-23.8565
11
42.6273
21
-23.8659
0
LINE
8
Black
10
42.6273
20
-23.8659
11
42.6414
21
-23.874
0
LINE
8
Black
10
42.6414
20
-23.874
11
42.645
21
-23.8782
0
LINE
8
Black
10
42.645
20
-23.8782
11
42.6495
21
-23.8814
0
LINE
8
Black
10
42.6495
20
-23.8814
11
51.0748
21
-32.3067
0
LINE
8
Black
10
51.0748
20
-32.3067
11
51.0748
21
-32.1835
0
LINE
8
Black
10
51.0748
20
-32.1835
11
51.2748
21
-32.1835
0
LINE
8
Black
10
51.2748
20
-32.1835
11
51.2748
21
-32.9835
0
LINE
8
Black
10
51.2748
20
-32.9835
11
51.0748
21
-32.9835
0
LINE
8
Black
10
51.0748
20
-32.9835
11
51.0748
21
-32.6813
0
LINE
8
Black
10
51.0748
20
-32.6813
11
51.0541
21
-32.6638
0
LINE
8
Black
10
51.0541
20
-32.6638
11
51.0323
21
-32.6263
0
LINE
8
Black
10
51.0323
20
-32.6263
11
51.0305
21
-32.616
0
LINE
8
Black
10
51.0305
20
-32.616
11
42.5093
21
-24.0948
0
LINE
8
Black
10
42.5093
20
-24.0948
11
37.7164
21
-24.0948
0
LINE
8
Black
10
37.7164
20
-24.0948
11
37.711
21
-24.0938
0
LINE
8
Black
10
37.711
20
-24.0938
11
37.7055
21
-24.0943
0
LINE
8
Black
10
37.7055
20
-24.0943
11
37.6897
21
-24.0901
0
LINE
8
Black
10
37.6897
20
-24.0901
11
37.6736
21
-24.0873
0
LINE
8
Black
10
37.6736
20
-24.0873
11
37.6689
21
-24.0845
0
LINE
8
Black
10
37.6689
20
-24.0845
11
37.6636
21
-24.0831
0
LINE
8
Black
10
37.6636
20
-24.0831
11
37.6502
21
-24.0737
0
LINE
8
Black
10
37.6502
20
-24.0737
11
37.636
21
-24.0655
0
LINE
8
Black
10
37.636
20
-24.0655
11
37.6325
21
-24.0613
0
LINE
8
Black
10
37.6325
20
-24.0613
11
37.628
21
-24.0582
0
LINE
8
Black
10
37.628
20
-24.0582
11
36.838
21
-23.2682
0
LINE
8
Black
10
36.838
20
-23.2682
11
36.8349
21
-23.2637
0
LINE
8
Black
10
36.8349
20
-23.2637
11
36.8306
21
-23.2601
0
LINE
8
Black
10
36.8306
20
-23.2601
11
36.8225
21
-23.246
0
LINE
8
Black
10
36.8225
20
-23.246
11
36.8131
21
-23.2326
0
LINE
8
Black
10
36.8131
20
-23.2326
11
36.8117
21
-23.2273
0
LINE
8
Black
10
36.8117
20
-23.2273
11
36.8089
21
-23.2226
0
LINE
8
Black
10
36.8089
20
-23.2226
11
36.8061
21
-23.2065
0
LINE
8
Black
10
36.8061
20
-23.2065
11
36.8019
21
-23.1907
0
LINE
8
Black
10
36.8019
20
-23.1907
11
36.8024
21
-23.1852
0
LINE
8
Black
10
36.8024
20
-23.1852
11
36.8014
21
-23.1798
0
LINE
8
Black
10
36.8014
20
-23.1798
11
36.8014
21
-23.0448
0
LINE
8
Black
10
36.8014
20
-23.0448
11
36.7264
21
-23.0448
0
LINE
8
Black
10
36.7264
20
-23.0448
11
36.7264
21
-21.6948
0
LINE
8
Black
10
36.7264
20
-21.6948
11
37.1264
21
-21.6948
0
LINE
8
Black
10
37.1264
20
-21.6948
11
37.1264
21
-23.0448
0
LINE
8
Black
10
52.0748
20
-32.9835
11
51.8748
21
-32.9835
0
LINE
8
Black
10
51.8748
20
-32.9835
11
51.8748
21
-32.1835
0
LINE
8
Black
10
51.8748
20
-32.1835
11
52.0748
21
-32.1835
0
LINE
8
Black
10
52.0748
20
-32.1835
11
52.0748
21
-32.9835
0
LINE
8
Black
10
52.4748
20
-32.9835
11
52.2748
21
-32.9835
0
LINE
8
Black
10
52.2748
20
-32.9835
11
52.2748
21
-32.1835
0
LINE
8
Black
10
52.2748
20
-32.1835
11
52.4748
21
-32.1835
0
LINE
8
Black
10
52.4748
20
-32.1835
11
52.4748
21
-32.9835
0
LINE
8
Black
10
52.8748
20
-32.9835
11
52.6748
21
-32.9835
0
LINE
8
Black
10
52.6748
20
-32.9835
11
52.6748
21
-32.1835
0
LINE
8
Black
10
52.6748
20
-32.1835
11
52.8748
21
-32.1835
0
LINE
8
Black
10
52.8748
20
-32.1835
11
52.8748
21
-32.9835
0
LINE
8
Black
10
53.2748
20
-32.9835
11
53.0748
21
-32.9835
0
LINE
8
Black
10
53.0748
20
-32.9835
11
53.0748
21
-32.1835
0
LINE
8
Black
10
53.0748
20
-32.1835
11
53.2748
21
-32.1835
0
LINE
8
Black
10
53.2748
20
-32.1835
11
53.2748
21
-32.9835
0
LINE
8
Black
10
53.6748
20
-32.9835
11
53.4748
21
-32.9835
0
LINE
8
Black
10
53.4748
20
-32.9835
11
53.4748
21
-32.1835
0
LINE
8
Black
10
53.4748
20
-32.1835
11
53.6748
21
-32.1835
0
LINE
8
Black
10
53.6748
20
-32.1835
11
53.6748
21
-32.9835
0
LINE
8
Black
10
54.0748
20
-32.9835
11
53.8748
21
-32.9835
0
LINE
8
Black
10
53.8748
20
-32.9835
11
53.8748
21
-32.1835
0
LINE
8
Black
10
53.8748
20
-32.1835
11
54.0748
21
-32.1835
0
LINE
8
Black
10
54.0748
20
-32.1835
11
54.0748
21
-32.9835
0
LINE
8
Black
10
54.8748
20
-32.9835
11
54.6748
21
-32.9835
0
LINE
8
Black
10
54.6748
20
-32.9835
11
54.6748
21
-32.1835
0
LINE
8
Black
10
54.6748
20
-32.1835
11
54.8748
21
-32.1835
0
LINE
8
Black
10
54.8748
20
-32.1835
11
54.8748
21
-32.9835
0
LINE
8
Black
10
55.6748
20
-32.9835
11
55.4748
21
-32.9835
0
LINE
8
Black
10
55.4748
20
-32.9835
11
55.4748
21
-32.1835
0
LINE
8
Black
10
55.4748
20
-32.1835
11
55.6748
21
-32.1835
0
LINE
8
Black
10
55.6748
20
-32.1835
11
55.6748
21
-32.9835
0
LINE
8
Black
10
40.0264
20
-24.3588
11
40.1594
21
-24.4704
0
LINE
8
Black
10
40.1594
20
-24.4704
11
40.2462
21
-24.6208
0
LINE
8
Black
10
40.2462
20
-24.6208
11
40.2764
21
-24.7918
0
LINE
8
Black
10
40.2764
20
-24.7918
11
40.2764
21
-25.3478
0
LINE
8
Black
10
40.2764
20
-25.3478
11
40.2462
21
-25.5188
0
LINE
8
Black
10
40.2462
20
-25.5188
11
40.1594
21
-25.6692
0
LINE
8
Black
10
40.1594
20
-25.6692
11
40.0264
21
-25.7808
0
LINE
8
Black
10
40.0264
20
-25.7808
11
39.8632
21
-25.8402
0
LINE
8
Black
10
39.8632
20
-25.8402
11
39.6896
21
-25.8402
0
LINE
8
Black
10
39.6896
20
-25.8402
11
39.5264
21
-25.7808
0
LINE
8
Black
10
39.5264
20
-25.7808
11
39.3934
21
-25.6692
0
LINE
8
Black
10
39.3934
20
-25.6692
11
39.3066
21
-25.5188
0
LINE
8
Black
10
39.3066
20
-25.5188
11
39.2764
21
-25.3478
0
LINE
8
Black
10
39.2764
20
-25.3478
11
39.2764
21
-24.7918
0
LINE
8
Black
10
39.2764
20
-24.7918
11
39.3066
21
-24.6208
0
LINE
8
Black
10
39.3066
20
-24.6208
11
39.3934
21
-24.4704
0
LINE
8
Black
10
39.3934
20
-24.4704
11
39.5264
21
-24.3588
0
LINE
8
Black
10
39.5264
20
-24.3588
11
39.6896
21
-24.2994
0
LINE
8
Black
10
39.6896
20
-24.2994
11
39.8632
21
-24.2994
0
LINE
8
Black
10
39.8632
20
-24.2994
11
40.0264
21
-24.3588
0
LINE
8
Black
10
33.0264
20
-24.3588
11
33.1594
21
-24.4704
0
LINE
8
Black
10
33.1594
20
-24.4704
11
33.2462
21
-24.6208
0
LINE
8
Black
10
33.2462
20
-24.6208
11
33.2764
21
-24.7918
0
LINE
8
Black
10
33.2764
20
-24.7918
11
33.2764
21
-25.3478
0
LINE
8
Black
10
33.2764
20
-25.3478
11
33.2462
21
-25.5188
0
LINE
8
Black
10
33.2462
20
-25.5188
11
33.1594
21
-25.6692
0
LINE
8
Black
10
33.1594
20
-25.6692
11
33.0264
21
-25.7808
0
LINE
8
Black
10
33.0264
20
-25.7808
11
32.8632
21
-25.8402
0
LINE
8
Black
10
32.8632
20
-25.8402
11
32.6896
21
-25.8402
0
LINE
8
Black
10
32.6896
20
-25.8402
11
32.5264
21
-25.7808
0
LINE
8
Black
10
32.5264
20
-25.7808
11
32.3934
21
-25.6692
0
LINE
8
Black
10
32.3934
20
-25.6692
11
32.3066
21
-25.5188
0
LINE
8
Black
10
32.3066
20
-25.5188
11
32.2764
21
-25.3478
0
LINE
8
Black
10
32.2764
20
-25.3478
11
32.2764
21
-24.7918
0
LINE
8
Black
10
32.2764
20
-24.7918
11
32.3066
21
-24.6208
0
LINE
8
Black
10
32.3066
20
-24.6208
11
32.3934
21
-24.4704
0
LINE
8
Black
10
32.3934
20
-24.4704
11
32.5264
21
-24.3588
0
LINE
8
Black
10
32.5264
20
-24.3588
11
32.6896
21
-24.2994
0
LINE
8
Black
10
32.6896
20
-24.2994
11
32.8632
21
-24.2994
0
LINE
8
Black
10
32.8632
20
-24.2994
11
33.0264
21
-24.3588
0
LINE
8
Black
10
36.4764
20
-23.0448
11
36.0764
21
-23.0448
0
LINE
8
Black
10
36.0764
20
-23.0448
11
36.0764
21
-21.6948
0
LINE
8
Black
10
36.0764
20
-21.6948
11
36.4764
21
-21.6948
0
LINE
8
Black
10
36.4764
20
-21.6948
11
36.4764
21
-23.0448
0
LINE
8
Black
10
35.8264
20
-23.0448
11
35.4264
21
-23.0448
0
LINE
8
Black
10
35.4264
20
-23.0448
11
35.4264
21
-21.6948
0
LINE
8
Black
10
35.4264
20
-21.6948
11
35.8264
21
-21.6948
0
LINE
8
Black
10
35.8264
20
-21.6948
11
35.8264
21
-23.0448
0
LINE
8
Black
10
35.1764
20
-23.0448
11
34.7764
21
-23.0448
0
LINE
8
Black
10
34.7764
20
-23.0448
11
34.7764
21
-21.6948
0
LINE
8
Black
10
34.7764
20
-21.6948
11
35.1764
21
-21.6948
0
LINE
8
Black
10
35.1764
20
-21.6948
11
35.1764
21
-23.0448
0
LINE
8
Black
10
39.0912
20
-21.9234
11
39.2341
21
-22.0059
0
LINE
8
Black
10
39.2341
20
-22.0059
11
39.3401
21
-22.1323
0
LINE
8
Black
10
39.3401
20
-22.1323
11
39.3966
21
-22.2873
0
LINE
8
Black
10
39.3966
20
-22.2873
11
39.3966
21
-22.4523
0
LINE
8
Black
10
39.3966
20
-22.4523
11
39.3401
21
-22.6073
0
LINE
8
Black
10
39.3401
20
-22.6073
11
39.2341
21
-22.7337
0
LINE
8
Black
10
39.2341
20
-22.7337
11
39.0912
21
-22.8162
0
LINE
8
Black
10
39.0912
20
-22.8162
11
38.9288
21
-22.8448
0
LINE
8
Black
10
38.9288
20
-22.8448
11
38.624
21
-22.8448
0
LINE
8
Black
10
38.624
20
-22.8448
11
38.4616
21
-22.8162
0
LINE
8
Black
10
38.4616
20
-22.8162
11
38.3187
21
-22.7337
0
LINE
8
Black
10
38.3187
20
-22.7337
11
38.2127
21
-22.6073
0
LINE
8
Black
10
38.2127
20
-22.6073
11
38.1562
21
-22.4523
0
LINE
8
Black
10
38.1562
20
-22.4523
11
38.1562
21
-22.2873
0
LINE
8
Black
10
38.1562
20
-22.2873
11
38.2127
21
-22.1323
0
LINE
8
Black
10
38.2127
20
-22.1323
11
38.3187
21
-22.0059
0
LINE
8
Black
10
38.3187
20
-22.0059
11
38.4616
21
-21.9234
0
LINE
8
Black
10
38.4616
20
-21.9234
11
38.624
21
-21.8948
0
LINE
8
Black
10
38.624
20
-21.8948
11
38.9288
21
-21.8948
0
LINE
8
Black
10
38.9288
20
-21.8948
11
39.0912
21
-21.9234
0
LINE
8
Black
10
34.0912
20
-21.9234
11
34.2341
21
-22.0059
0
LINE
8
Black
10
34.2341
20
-22.0059
11
34.3401
21
-22.1323
0
LINE
8
Black
10
34.3401
20
-22.1323
11
34.3966
21
-22.2873
0
LINE
8
Black
10
34.3966
20
-22.2873
11
34.3966
21
-22.4523
0
LINE
8
Black
10
34.3966
20
-22.4523
11
34.3401
21
-22.6073
0
LINE
8
Black
10
34.3401
20
-22.6073
11
34.2341
21
-22.7337
0
LINE
8
Black
10
34.2341
20
-22.7337
11
34.0912
21
-22.8162
0
LINE
8
Black
10
34.0912
20
-22.8162
11
33.9288
21
-22.8448
0
LINE
8
Black
10
33.9288
20
-22.8448
11
33.624
21
-22.8448
0
LINE
8
Black
10
33.624
20
-22.8448
11
33.4616
21
-22.8162
0
LINE
8
Black
10
33.4616
20
-22.8162
11
33.3187
21
-22.7337
0
LINE
8
Black
10
33.3187
20
-22.7337
11
33.2127
21
-22.6073
0
LINE
8
Black
10
33.2127
20
-22.6073
11
33.1562
21
-22.4523
0
LINE
8
Black
10
33.1562
20
-22.4523
11
33.1562
21
-22.2873
0
LINE
8
Black
10
33.1562
20
-22.2873
11
33.2127
21
-22.1323
0
LINE
8
Black
10
33.2127
20
-22.1323
11
33.3187
21
-22.0059
0
LINE
8
Black
10
33.3187
20
-22.0059
11
33.4616
21
-21.9234
0
LINE
8
Black
10
33.4616
20
-21.9234
11
33.624
21
-21.8948
0
LINE
8
Black
10
33.624
20
-21.8948
11
33.9288
21
-21.8948
0
LINE
8
Black
10
33.9288
20
-21.8948
11
34.0912
21
-21.9234
  0
ENDSEC
  0
EOF
