G04 #@! TF.GenerationSoftware,KiCad,Pcbnew,(2017-01-21 revision 33449216b)-makepkg*
G04 #@! TF.CreationDate,2017-01-22T00:37:00+01:00*
G04 #@! TF.ProjectId,vartaunik,7661727461756E696B2E6B696361645F,rev?*
G04 #@! TF.FileFunction,Copper,L1,Top,Signal*
G04 #@! TF.FilePolarity,Positive*
%FSLAX46Y46*%
G04 Gerber Fmt 4.6, Leading zero omitted, Abs format (unit mm)*
G04 Created by KiCad (PCBNEW (2017-01-21 revision 33449216b)-makepkg) date Sun Jan 22 00:37:00 2017*
%MOMM*%
%LPD*%
G01*
G04 APERTURE LIST*
%ADD10C,0.100000*%
%ADD11R,1.112500X1.112500*%
%ADD12R,0.200000X0.800000*%
%ADD13R,0.800000X0.200000*%
%ADD14O,1.000000X1.550000*%
%ADD15O,1.250000X0.950000*%
%ADD16R,0.400000X1.350000*%
%ADD17C,0.250000*%
%ADD18C,0.200000*%
G04 APERTURE END LIST*
D10*
D11*
X51706059Y-33914750D03*
X51706059Y-35027250D03*
X51706059Y-36139750D03*
X51706059Y-37252250D03*
X52818559Y-33914750D03*
X52818559Y-35027250D03*
X52818559Y-36139750D03*
X52818559Y-37252250D03*
X53931059Y-33914750D03*
X53931059Y-35027250D03*
X53931059Y-36139750D03*
X53931059Y-37252250D03*
X55043559Y-33914750D03*
X55043559Y-35027250D03*
X55043559Y-36139750D03*
X55043559Y-37252250D03*
D12*
X51174809Y-32583500D03*
X51574809Y-32583500D03*
X51974809Y-32583500D03*
X52374809Y-32583500D03*
X52774809Y-32583500D03*
X53174809Y-32583500D03*
X53574809Y-32583500D03*
X53974809Y-32583500D03*
X54374809Y-32583500D03*
X54774809Y-32583500D03*
X55174809Y-32583500D03*
X55574809Y-32583500D03*
D13*
X56374809Y-33383500D03*
X56374809Y-33783500D03*
X56374809Y-34183500D03*
X56374809Y-34583500D03*
X56374809Y-34983500D03*
X56374809Y-35383500D03*
X56374809Y-35783500D03*
X56374809Y-36183500D03*
X56374809Y-36583500D03*
X56374809Y-36983500D03*
X56374809Y-37383500D03*
X56374809Y-37783500D03*
D12*
X55574809Y-38583500D03*
X55174809Y-38583500D03*
X54774809Y-38583500D03*
X54374809Y-38583500D03*
X53974809Y-38583500D03*
X53574809Y-38583500D03*
X53174809Y-38583500D03*
X52774809Y-38583500D03*
X52374809Y-38583500D03*
X51974809Y-38583500D03*
X51574809Y-38583500D03*
X51174809Y-38583500D03*
D13*
X50374809Y-37783500D03*
X50374809Y-37383500D03*
X50374809Y-36983500D03*
X50374809Y-36583500D03*
X50374809Y-36183500D03*
X50374809Y-35783500D03*
X50374809Y-35383500D03*
X50374809Y-34983500D03*
X50374809Y-34583500D03*
X50374809Y-34183500D03*
X50374809Y-33783500D03*
X50374809Y-33383500D03*
D14*
X39776400Y-25069800D03*
X32776400Y-25069800D03*
D15*
X38776400Y-22369800D03*
X33776400Y-22369800D03*
D16*
X37576400Y-22369800D03*
X36926400Y-22369800D03*
X36276400Y-22369800D03*
X35626400Y-22369800D03*
X34976400Y-22369800D03*
D17*
X36926400Y-22369800D02*
X36926400Y-23179802D01*
X36926400Y-23179802D02*
X37716388Y-23969790D01*
X37716388Y-23969790D02*
X42561099Y-23969790D01*
X42561099Y-23969790D02*
X51149808Y-32558499D01*
X51149808Y-32558499D02*
X51149808Y-32583500D01*
D18*
X51574809Y-32583500D02*
X51574809Y-33058499D01*
D17*
X51574809Y-24010729D02*
X49133870Y-21569790D01*
X49133870Y-21569790D02*
X38295026Y-21569790D01*
X38295026Y-21569790D02*
X37576400Y-22288416D01*
X37576400Y-22288416D02*
X37576400Y-22369800D01*
X51574809Y-29807009D02*
X51574809Y-24010729D01*
D18*
X51574809Y-32583500D02*
X51574809Y-29807009D01*
D17*
X37576400Y-22369800D02*
X37589480Y-22369800D01*
M02*
